<?xml version="1.0" encoding="UTF-8" standalone="no"?>
<!-- Created with Inkscape (http://www.inkscape.org/) -->

<svg
   xmlns:dc="http://purl.org/dc/elements/1.1/"
   xmlns:cc="http://creativecommons.org/ns#"
   xmlns:rdf="http://www.w3.org/1999/02/22-rdf-syntax-ns#"
   xmlns:svg="http://www.w3.org/2000/svg"
   xmlns="http://www.w3.org/2000/svg"
   xmlns:sodipodi="http://sodipodi.sourceforge.net/DTD/sodipodi-0.dtd"
   xmlns:inkscape="http://www.inkscape.org/namespaces/inkscape"
   width="297mm"
   height="210mm"
   viewBox="0 0 1052.3622 744.09448"
   id="svg2"
   version="1.1"
   inkscape:version="0.91 r13725"
   sodipodi:docname="wiiicon.svg">
  <defs
     id="defs4" />
  <sodipodi:namedview
     id="base"
     pagecolor="#ffffff"
     bordercolor="#666666"
     borderopacity="1.0"
     inkscape:pageopacity="0.0"
     inkscape:pageshadow="2"
     inkscape:zoom="0.73358773"
     inkscape:cx="348.19188"
     inkscape:cy="547.34271"
     inkscape:document-units="px"
     inkscape:current-layer="layer1"
     showgrid="false"
     inkscape:window-width="1366"
     inkscape:window-height="692"
     inkscape:window-x="0"
     inkscape:window-y="24"
     inkscape:window-maximized="1" />
  <metadata
     id="metadata7">
    <rdf:RDF>
      <cc:Work
         rdf:about="">
        <dc:format>image/svg+xml</dc:format>
        <dc:type
           rdf:resource="http://purl.org/dc/dcmitype/StillImage" />
        <dc:title></dc:title>
      </cc:Work>
    </rdf:RDF>
  </metadata>
  <g
     inkscape:label="Layer 1"
     inkscape:groupmode="layer"
     id="layer1"
     transform="translate(0,-308.26772)">
    <g
       id="g3474"
       transform="matrix(1.7103394,0,0,1.7103393,-89.951072,-205.04704)">
      <path
         sodipodi:nodetypes="zzzzzzzzzzzzzzzzz"
         inkscape:connector-curvature="0"
         id="path3420"
         d="m 130.62518,522.73921 c 0.16329,33.10692 -15.24697,95.96078 -17.48261,108.40548 -2.23564,12.4447 3.76715,24.85195 9.54214,29.9896 5.77499,5.13765 18.31485,13.20497 41.31891,9.64111 23.00407,-3.56385 126.93715,-16.99354 196.99618,-16.95962 70.05903,0.0339 196.72051,16.11125 211.64812,16.71574 14.92761,0.60448 24.07373,-7.07034 28.14939,-12.19601 4.07566,-5.12567 7.07228,-12.38693 4.44727,-29.91715 -2.62501,-17.53022 -13.15781,-64.85843 -13.36746,-113.76452 -0.20965,-48.90609 11.68745,-88.64811 14.73063,-105.7048 3.04318,-17.05669 0.0541,-24.5689 -4.60068,-31.35276 -4.65476,-6.78385 -14.84529,-14.13404 -29.13762,-12.60926 -14.29233,1.52478 -157.79069,11.99469 -212.61086,12.60926 -54.82017,0.61457 -174.34195,-8.6625 -196.67897,-12.60926 -22.33703,-3.94676 -33.76609,1.19165 -42.25807,11.2461 -8.49198,10.05445 -9.22425,20.19857 -4.43028,40.55411 4.79396,20.35554 13.57061,72.84506 13.73391,105.95198 z"
         style="fill:#f9f9f9;fill-opacity:1;fill-rule:evenodd;stroke:#000000;stroke-width:1.79999995;stroke-linecap:butt;stroke-linejoin:miter;stroke-miterlimit:4;stroke-dasharray:none;stroke-opacity:1" />
      <rect
         transform="matrix(0,-1,1,0,0,0)"
         rx="14.942666"
         ry="14.631219"
         y="184.91156"
         x="-606.40491"
         height="101.83144"
         width="176.80542"
         id="rect3426-3"
         style="fill:#ececec;fill-opacity:1;fill-rule:evenodd;stroke:#000000;stroke-width:1.79999995;stroke-linecap:butt;stroke-linejoin:miter;stroke-miterlimit:4;stroke-dasharray:none;stroke-opacity:1" />
      <path
         inkscape:connector-curvature="0"
         id="path3422"
         d="m 359.87516,377.59628 0,275.35903"
         style="opacity:0.36000001;fill:none;fill-rule:evenodd;stroke:#000000;stroke-width:3.4000001;stroke-linecap:butt;stroke-linejoin:miter;stroke-miterlimit:4;stroke-dasharray:none;stroke-opacity:1" />
      <rect
         transform="matrix(0,-1,1,0,0,0)"
         rx="14.942666"
         ry="14.631219"
         y="433.0968"
         x="-606.22583"
         height="101.83144"
         width="176.80542"
         id="rect3426-3-6"
         style="fill:#ececec;fill-opacity:1;fill-rule:evenodd;stroke:#000000;stroke-width:1.79999995;stroke-linecap:butt;stroke-linejoin:miter;stroke-miterlimit:4;stroke-dasharray:none;stroke-opacity:1" />
      <path
         inkscape:connector-curvature="0"
         id="path3424"
         d="m 130.86369,516.63896 460.74926,1.36316"
         style="opacity:0.36000001;fill:none;fill-rule:evenodd;stroke:#000000;stroke-width:3.4000001;stroke-linecap:butt;stroke-linejoin:miter;stroke-miterlimit:4;stroke-dasharray:none;stroke-opacity:1" />
      <rect
         rx="17.00531"
         ry="15.863647"
         y="406.54514"
         x="161.1757"
         height="224.27718"
         width="400.12524"
         id="rect3426"
         style="fill:none;fill-rule:evenodd;stroke:#000000;stroke-width:1.79999995;stroke-linecap:butt;stroke-linejoin:miter;stroke-miterlimit:4;stroke-dasharray:none;stroke-opacity:1" />
      <rect
         ry="1.1055071"
         rx="1.0817118"
         y="656.27368"
         x="339.37906"
         height="12.077594"
         width="43.006931"
         id="rect4258"
         style="fill:#f9f9f9;fill-opacity:1;stroke:#000000;stroke-width:1.79999995;stroke-miterlimit:4;stroke-dasharray:none;stroke-opacity:1" />
    </g>
  </g>
</svg>
